<svg width="138" height="40" viewBox="0 0 138 40" fill="none" xmlns="http://www.w3.org/2000/svg">
<g clip-path="url(#clip0_857_1104)">
<path d="M132.49 40H5.48887C2.73887 40 0.489868 37.75 0.489868 35V5C0.489868 2.25 2.73887 0 5.48887 0H132.49C135.24 0 137.49 2.25 137.49 5V35C137.49 37.75 135.24 40 132.49 40Z" fill="#030404"/>
<path fill-rule="evenodd" clip-rule="evenodd" d="M41.0552 30.2453C37.9582 32.5303 33.4682 33.7453 29.6022 33.7453C24.1842 33.7453 19.3052 31.7423 15.6122 28.4093C15.3222 28.1473 15.5812 27.7893 15.9292 27.9923C19.9132 30.3103 24.8402 31.7063 29.9272 31.7063C33.3602 31.7063 37.1332 30.9943 40.6052 29.5213C41.1282 29.2993 41.5672 29.8663 41.0552 30.2453Z" fill="white"/>
<path fill-rule="evenodd" clip-rule="evenodd" d="M42.3445 28.7739C41.9485 28.2669 39.7265 28.5339 38.7285 28.6539C38.4255 28.6899 38.3795 28.4259 38.6515 28.2339C40.4245 26.9899 43.3285 27.3489 43.6665 27.7659C44.0065 28.1859 43.5775 31.0979 41.9165 32.4879C41.6605 32.7019 41.4175 32.5879 41.5305 32.3059C41.9045 31.3719 42.7415 29.2819 42.3445 28.7739Z" fill="white"/>
<path fill-rule="evenodd" clip-rule="evenodd" d="M38.7987 19.4417V18.2317C38.7997 18.0477 38.9377 17.9247 39.1047 17.9257L44.5277 17.9247C44.7007 17.9247 44.8397 18.0507 44.8397 18.2297V19.2677C44.8387 19.4417 44.6917 19.6687 44.4317 20.0297L41.6227 24.0397C42.6657 24.0157 43.7677 24.1717 44.7157 24.7037C44.9287 24.8237 44.9867 25.0017 45.0037 25.1757V26.4667C45.0037 26.6447 44.8087 26.8507 44.6037 26.7437C42.9347 25.8697 40.7197 25.7737 38.8747 26.7537C38.6857 26.8547 38.4887 26.6517 38.4887 26.4737V25.2467C38.4887 25.0497 38.4927 24.7147 38.6907 24.4157L41.9447 19.7457H39.1117C38.9377 19.7457 38.7997 19.6227 38.7987 19.4417Z" fill="white"/>
<path fill-rule="evenodd" clip-rule="evenodd" d="M19.0212 26.998H17.3712C17.2142 26.988 17.0892 26.87 17.0762 26.719L17.0772 18.253C17.0772 18.083 17.2202 17.948 17.3962 17.948H18.9322C19.0932 17.955 19.2222 18.077 19.2322 18.232V19.337H19.2632C19.6632 18.268 20.4182 17.77 21.4342 17.77C22.4662 17.77 23.1132 18.268 23.5742 19.337C23.9752 18.268 24.8842 17.77 25.8532 17.77C26.5472 17.77 27.3012 18.054 27.7632 18.696C28.2862 19.409 28.1792 20.442 28.1792 21.35L28.1772 26.693C28.1772 26.862 28.0352 26.998 27.8592 26.998H26.2122C26.0462 26.988 25.9162 26.856 25.9162 26.694L25.9152 22.205C25.9152 21.85 25.9462 20.958 25.8692 20.62C25.7462 20.05 25.3762 19.889 24.8992 19.889C24.4982 19.889 24.0832 20.157 23.9132 20.584C23.7442 21.012 23.7592 21.724 23.7592 22.205V26.693C23.7592 26.862 23.6172 26.998 23.4412 26.998H21.7932C21.6282 26.988 21.4972 26.856 21.4972 26.694L21.4952 22.205C21.4952 21.261 21.6492 19.872 20.4792 19.872C19.2932 19.872 19.3402 21.225 19.3402 22.205L19.3392 26.693C19.3392 26.862 19.1972 26.998 19.0212 26.998Z" fill="white"/>
<path fill-rule="evenodd" clip-rule="evenodd" d="M49.525 19.497C48.309 19.497 48.232 21.154 48.232 22.188C48.232 23.221 48.217 25.43 49.51 25.43C50.788 25.43 50.85 23.648 50.85 22.562C50.85 21.85 50.819 20.994 50.603 20.317C50.418 19.729 50.049 19.497 49.525 19.497ZM49.51 17.77C51.958 17.77 53.282 19.872 53.282 22.544C53.282 25.127 51.82 27.177 49.51 27.177C47.108 27.177 45.799 25.074 45.799 22.455C45.799 19.818 47.123 17.77 49.51 17.77Z" fill="white"/>
<path fill-rule="evenodd" clip-rule="evenodd" d="M56.4576 26.998H54.8136C54.6486 26.988 54.5176 26.856 54.5176 26.694L54.5146 18.225C54.5296 18.069 54.6656 17.948 54.8316 17.948H56.3626C56.5066 17.955 56.6256 18.053 56.6556 18.184V19.479H56.6866C57.1486 18.321 57.7946 17.77 58.9346 17.77C59.6736 17.77 60.3976 18.036 60.8596 18.767C61.2906 19.444 61.2906 20.584 61.2906 21.404V26.732C61.2726 26.881 61.1376 26.998 60.9746 26.998H59.3206C59.1676 26.988 59.0446 26.876 59.0276 26.732V22.135C59.0276 21.208 59.1346 19.854 57.9956 19.854C57.5946 19.854 57.2256 20.121 57.0406 20.531C56.8096 21.048 56.7786 21.564 56.7786 22.135V26.693C56.7756 26.862 56.6336 26.998 56.4576 26.998Z" fill="white"/>
<path fill-rule="evenodd" clip-rule="evenodd" d="M36.1392 26.9763C36.0292 27.0743 35.8722 27.0813 35.7492 27.0153C35.2012 26.5593 35.1032 26.3493 34.8032 25.9153C33.8982 26.8373 33.2572 27.1143 32.0842 27.1143C30.6952 27.1143 29.6142 26.2573 29.6142 24.5433C29.6142 23.2043 30.3402 22.2933 31.3742 21.8473C32.2692 21.4543 33.5192 21.3833 34.4762 21.2753V21.0613C34.4762 20.6683 34.5072 20.2043 34.2752 19.8653C34.0742 19.5613 33.6892 19.4363 33.3492 19.4363C32.7202 19.4363 32.1612 19.7593 32.0232 20.4273C31.9952 20.5763 31.8862 20.7233 31.7372 20.7303L30.1382 20.5573C30.0032 20.5273 29.8532 20.4183 29.8922 20.2123C30.2592 18.2723 32.0112 17.6863 33.5812 17.6863C34.3832 17.6863 35.4322 17.9003 36.0652 18.5083C36.8682 19.2583 36.7902 20.2583 36.7902 21.3473V23.9173C36.7902 24.6903 37.1122 25.0293 37.4132 25.4463C37.5192 25.5963 37.5422 25.7743 37.4082 25.8843C37.0712 26.1663 36.4722 26.6863 36.1432 26.9803L36.1392 26.9763ZM34.4762 22.9543C34.4762 23.5973 34.4912 24.1323 34.1672 24.7043C33.9052 25.1683 33.4882 25.4543 33.0252 25.4543C32.3922 25.4543 32.0222 24.9723 32.0222 24.2573C32.0222 22.8523 33.2822 22.5973 34.4762 22.5973V22.9543Z" fill="white"/>
<path fill-rule="evenodd" clip-rule="evenodd" d="M14.5166 26.9763C14.4076 27.0743 14.2506 27.0813 14.1276 27.0153C13.5786 26.5593 13.4816 26.3493 13.1816 25.9153C12.2766 26.8373 11.6356 27.1143 10.4626 27.1143C9.0726 27.1143 7.9926 26.2573 7.9926 24.5433C7.9926 23.2043 8.7186 22.2933 9.7526 21.8473C10.6476 21.4543 11.8976 21.3833 12.8536 21.2753V21.0613C12.8536 20.6683 12.8856 20.2043 12.6536 19.8653C12.4526 19.5613 12.0666 19.4363 11.7276 19.4363C11.0986 19.4363 10.5386 19.7593 10.4016 20.4273C10.3726 20.5763 10.2646 20.7233 10.1146 20.7303L8.5156 20.5573C8.3816 20.5273 8.2306 20.4183 8.2696 20.2123C8.6366 18.2723 10.3886 17.6863 11.9586 17.6863C12.7616 17.6863 13.8106 17.9003 14.4436 18.5083C15.2456 19.2583 15.1686 20.2583 15.1686 21.3473V23.9173C15.1686 24.6903 15.4906 25.0293 15.7916 25.4463C15.8966 25.5963 15.9206 25.7743 15.7856 25.8843C15.4496 26.1663 14.8496 26.6863 14.5206 26.9803L14.5166 26.9763ZM12.8536 22.9543C12.8536 23.5973 12.8696 24.1323 12.5456 24.7043C12.2826 25.1683 11.8656 25.4543 11.4036 25.4543C10.7706 25.4543 10.4006 24.9723 10.4006 24.2573C10.4006 22.8523 11.6606 22.5973 12.8536 22.5973V22.9543Z" fill="white"/>
<path d="M68.544 25.6446C68.877 25.6446 69.227 25.5736 69.595 25.4296C69.962 25.2866 70.318 25.0826 70.662 24.8176V23.1646C70.054 23.0386 69.514 22.9746 69.044 22.9746C67.849 22.9746 67.252 23.4396 67.252 24.3706C67.252 24.7716 67.367 25.0856 67.597 25.3086C67.826 25.5326 68.142 25.6446 68.544 25.6446ZM67.976 27.0926C67.171 27.0926 66.52 26.8506 66.021 26.3686C65.521 25.8866 65.271 25.2606 65.271 24.4906C65.271 23.6416 65.578 22.9636 66.193 22.4586C66.807 21.9526 67.631 21.7006 68.665 21.7006C69.273 21.7006 69.94 21.7866 70.662 21.9586V20.9416C70.662 20.3566 70.536 19.9486 70.283 19.7196C70.031 19.4896 69.589 19.3746 68.958 19.3746C68.579 19.3746 68.159 19.4126 67.7 19.4866C67.24 19.5616 66.804 19.6676 66.391 19.8056C66.276 19.8396 66.178 19.8566 66.098 19.8566C65.949 19.8566 65.874 19.7486 65.874 19.5296V18.8916C65.874 18.7316 65.897 18.6166 65.943 18.5486C65.989 18.4786 66.109 18.4046 66.305 18.3236C67.2 17.9786 68.193 17.8076 69.285 17.8076C70.41 17.8076 71.239 18.0366 71.773 18.4966C72.308 18.9556 72.575 19.6736 72.575 20.6496V26.4546C72.575 26.7076 72.448 26.8336 72.196 26.8336H71.282C71.03 26.8336 70.887 26.7196 70.852 26.4886L70.766 25.9896C70.363 26.3336 69.919 26.6036 69.431 26.7996C68.943 26.9946 68.458 27.0926 67.976 27.0926Z" fill="white"/>
<path d="M78.4878 25.4216C79.2228 25.4216 79.7688 25.1716 80.1238 24.6716C80.4808 24.1726 80.6578 23.4116 80.6578 22.3886C80.6578 21.3786 80.4828 20.6296 80.1328 20.1416C79.7818 19.6526 79.2398 19.4096 78.5048 19.4096C77.7588 19.4096 77.0688 19.6276 76.4378 20.0636V24.7496C77.0808 25.1966 77.7648 25.4216 78.4878 25.4216ZM74.7838 30.3826C74.5308 30.3826 74.4048 30.2556 74.4048 30.0036V18.4446C74.4048 18.1916 74.5308 18.0656 74.7838 18.0656H75.7318C75.9838 18.0656 76.1338 18.1806 76.1798 18.4096L76.2828 18.9436C76.6848 18.5766 77.1298 18.2956 77.6178 18.0996C78.1058 17.9046 78.6138 17.8076 79.1428 17.8076C80.2328 17.8076 81.1038 18.2156 81.7518 19.0296C82.3998 19.8466 82.7258 20.9416 82.7258 22.3206C82.7258 23.2736 82.5668 24.1056 82.2518 24.8176C81.9358 25.5296 81.4958 26.0756 80.9338 26.4546C80.3708 26.8336 79.7288 27.0226 79.0048 27.0226C78.5228 27.0226 78.0578 26.9396 77.6088 26.7726C77.1608 26.6066 76.7708 26.3746 76.4378 26.0756V30.0036C76.4378 30.2556 76.3118 30.3826 76.0588 30.3826H74.7838Z" fill="white"/>
<path d="M88.2739 25.4216C89.0079 25.4216 89.5539 25.1716 89.9089 24.6716C90.2659 24.1726 90.4429 23.4116 90.4429 22.3886C90.4429 21.3786 90.2689 20.6296 89.9179 20.1416C89.5679 19.6526 89.0259 19.4096 88.2899 19.4096C87.5439 19.4096 86.8549 19.6276 86.2229 20.0636V24.7496C86.8659 25.1966 87.5499 25.4216 88.2739 25.4216ZM84.5689 30.3826C84.3169 30.3826 84.1909 30.2556 84.1909 30.0036V18.4446C84.1909 18.1916 84.3169 18.0656 84.5689 18.0656H85.5169C85.7699 18.0656 85.9189 18.1806 85.9649 18.4096L86.0679 18.9436C86.4699 18.5766 86.9149 18.2956 87.4029 18.0996C87.8909 17.9046 88.3999 17.8076 88.9279 17.8076C90.0189 17.8076 90.8889 18.2156 91.5369 19.0296C92.1859 19.8466 92.5109 20.9416 92.5109 22.3206C92.5109 23.2736 92.3529 24.1056 92.0369 24.8176C91.7209 25.5296 91.2809 26.0756 90.7189 26.4546C90.1559 26.8336 89.5139 27.0226 88.7899 27.0226C88.3079 27.0226 87.8429 26.9396 87.3949 26.7726C86.9459 26.6066 86.5559 26.3746 86.2229 26.0756V30.0036C86.2229 30.2556 86.0969 30.3826 85.8439 30.3826H84.5689Z" fill="white"/>
<path d="M96.3282 27.0926C95.4212 27.0926 94.5832 26.9426 93.8142 26.6436C93.6302 26.5746 93.5123 26.5036 93.4603 26.4286C93.4082 26.3536 93.3832 26.2306 93.3832 26.0586V25.4376C93.3832 25.2086 93.4632 25.0936 93.6242 25.0936C93.7042 25.0936 93.8652 25.1286 94.1072 25.1966C94.9222 25.4276 95.6572 25.5416 96.3122 25.5416C96.8862 25.5416 97.3052 25.4526 97.5692 25.2746C97.8332 25.0966 97.9652 24.8236 97.9652 24.4566C97.9652 24.2036 97.8852 23.9996 97.7242 23.8456C97.5632 23.6896 97.2652 23.5316 96.8282 23.3716L95.3992 22.8196C94.1133 22.3266 93.4692 21.5216 93.4692 20.4086C93.4692 19.6046 93.7682 18.9706 94.3652 18.5046C94.9622 18.0396 95.7602 17.8076 96.7592 17.8076C97.4712 17.8076 98.1892 17.9286 98.9122 18.1686C99.0852 18.2256 99.1992 18.2926 99.2572 18.3666C99.3152 18.4416 99.3432 18.5706 99.3432 18.7546V19.3576C99.3432 19.4836 99.3232 19.5726 99.2822 19.6246C99.2422 19.6766 99.1712 19.7016 99.0682 19.7016C99.0102 19.7016 98.8662 19.6736 98.6372 19.6156C97.9132 19.4436 97.3272 19.3576 96.8802 19.3576C96.3522 19.3576 95.9642 19.4346 95.7172 19.5906C95.4702 19.7446 95.3472 19.9886 95.3472 20.3216C95.3472 20.5746 95.4362 20.7786 95.6143 20.9336C95.7913 21.0886 96.1112 21.2586 96.5702 21.4416L97.8962 21.9586C98.5852 22.2226 99.0822 22.5386 99.3862 22.9056C99.6912 23.2736 99.8432 23.7386 99.8432 24.3016C99.8432 25.1626 99.5322 25.8436 98.9122 26.3426C98.2922 26.8426 97.4312 27.0926 96.3282 27.0926Z" fill="white"/>
<path d="M104.662 26.9538C103.755 26.9538 103.083 26.7418 102.647 26.3168C102.211 25.8918 101.992 25.2428 101.992 24.3708V19.6158H100.889C100.637 19.6158 100.51 19.4898 100.51 19.2368V18.7378C100.51 18.5888 100.54 18.4818 100.597 18.4188C100.654 18.3558 100.746 18.3128 100.873 18.2898L102.061 18.1178L102.319 16.0328C102.331 15.8948 102.371 15.7978 102.44 15.7398C102.508 15.6828 102.612 15.6538 102.75 15.6538H103.646C103.898 15.6538 104.025 15.7808 104.025 16.0328V18.0658H106.143C106.396 18.0658 106.522 18.1918 106.522 18.4448V19.2368C106.522 19.4898 106.396 19.6158 106.143 19.6158H104.025V24.2668C104.025 24.6578 104.12 24.9358 104.309 25.1018C104.499 25.2688 104.817 25.3518 105.265 25.3518C105.529 25.3518 105.742 25.3348 105.902 25.3008C106.063 25.2668 106.195 25.2488 106.298 25.2488C106.494 25.2488 106.591 25.3578 106.591 25.5758V26.1958C106.591 26.3808 106.559 26.5098 106.497 26.5838C106.433 26.6588 106.316 26.7198 106.143 26.7638C105.661 26.8918 105.168 26.9538 104.662 26.9538Z" fill="white"/>
<path d="M111.364 25.4896C112.81 25.4896 113.534 24.4726 113.534 22.4406C113.534 20.4196 112.81 19.4096 111.364 19.4096C109.917 19.4096 109.193 20.4196 109.193 22.4406C109.193 24.4726 109.917 25.4896 111.364 25.4896ZM111.364 27.0926C110.031 27.0926 108.992 26.6806 108.246 25.8596C107.499 25.0396 107.126 23.8996 107.126 22.4406C107.126 20.9826 107.499 19.8466 108.246 19.0296C108.992 18.2156 110.031 17.8076 111.364 17.8076C112.696 17.8076 113.735 18.2156 114.481 19.0296C115.228 19.8466 115.601 20.9826 115.601 22.4406C115.601 23.8996 115.228 25.0396 114.481 25.8596C113.735 26.6806 112.696 27.0926 111.364 27.0926Z" fill="white"/>
<path d="M117.433 26.837C117.18 26.837 117.054 26.711 117.054 26.458V18.448C117.054 18.195 117.18 18.069 117.433 18.069H118.346C118.508 18.069 118.619 18.092 118.682 18.138C118.745 18.184 118.789 18.27 118.811 18.396L119.018 19.378C119.477 18.873 119.908 18.517 120.31 18.311C120.712 18.103 121.148 18 121.619 18H121.688C121.838 18 121.961 18.015 122.058 18.043C122.156 18.072 122.225 18.121 122.265 18.189C122.305 18.259 122.326 18.385 122.326 18.568V19.499C122.326 19.74 122.222 19.86 122.015 19.86C121.947 19.86 121.852 19.854 121.731 19.843C121.611 19.832 121.481 19.826 121.343 19.826C120.494 19.826 119.742 20.044 119.087 20.48V26.458C119.087 26.711 118.961 26.837 118.708 26.837H117.433Z" fill="white"/>
<path d="M128.641 21.5796V21.4416C128.641 20.7416 128.489 20.2076 128.184 19.8396C127.881 19.4716 127.435 19.2886 126.849 19.2886C126.229 19.2886 125.724 19.4956 125.334 19.9086C124.943 20.3216 124.719 20.8796 124.662 21.5796H128.641ZM127.194 27.0926C125.747 27.0926 124.65 26.7016 123.904 25.9206C123.157 25.1396 122.784 24.0026 122.784 22.5106C122.784 21.0286 123.149 19.8746 123.878 19.0476C124.607 18.2206 125.627 17.8076 126.935 17.8076C128.061 17.8076 128.925 18.1146 129.527 18.7286C130.131 19.3436 130.432 20.2136 130.432 21.3386C130.432 21.7286 130.404 22.1376 130.346 22.5606C130.322 22.7106 130.279 22.8106 130.217 22.8626C130.154 22.9146 130.07 22.9406 129.967 22.9406H124.662C124.696 23.8126 124.94 24.4536 125.394 24.8606C125.847 25.2686 126.546 25.4726 127.487 25.4726C128.175 25.4726 128.899 25.3636 129.657 25.1446C129.749 25.1226 129.818 25.1046 129.863 25.0936C129.91 25.0826 129.95 25.0766 129.984 25.0766C130.157 25.0766 130.243 25.1906 130.243 25.4216V26.0416C130.243 26.2136 130.217 26.3366 130.165 26.4116C130.113 26.4856 129.996 26.5586 129.812 26.6266C129.042 26.9366 128.17 27.0926 127.194 27.0926Z" fill="white"/>
<path d="M48.4144 11.9984C48.6114 11.9984 48.8194 11.9594 49.0354 11.8824C49.2514 11.8044 49.4584 11.6894 49.6564 11.5394V10.6214C49.3324 10.5444 49.0144 10.5054 48.7024 10.5054C48.0244 10.5054 47.6854 10.7654 47.6854 11.2874C47.6854 11.5154 47.7484 11.6914 47.8744 11.8144C48.0004 11.9374 48.1804 11.9984 48.4144 11.9984ZM48.1984 12.6744C47.7724 12.6744 47.4314 12.5524 47.1764 12.3094C46.9214 12.0664 46.7944 11.7414 46.7944 11.3324C46.7944 10.8944 46.9504 10.5454 47.2624 10.2844C47.5734 10.0234 47.9944 9.89239 48.5224 9.89239C48.8584 9.89239 49.2354 9.94439 49.6564 10.0454V9.45239C49.6564 9.12739 49.5824 8.90039 49.4354 8.76739C49.2884 8.63639 49.0384 8.57039 48.6844 8.57039C48.2704 8.57039 47.8654 8.63039 47.4694 8.74939C47.3314 8.79139 47.2444 8.81239 47.2084 8.81239C47.1364 8.81239 47.1004 8.75939 47.1004 8.65139V8.40839C47.1004 8.32939 47.1114 8.27239 47.1364 8.23739C47.1604 8.20139 47.2084 8.16839 47.2794 8.13839C47.4654 8.05439 47.7014 7.98639 47.9864 7.93539C48.2714 7.88439 48.5544 7.85839 48.8374 7.85839C49.4064 7.85839 49.8274 7.97739 50.0974 8.21439C50.3674 8.45139 50.5024 8.81239 50.5024 9.29939V12.3764C50.5024 12.4964 50.4424 12.5564 50.3214 12.5564H49.9354C49.8204 12.5564 49.7554 12.4994 49.7364 12.3864L49.6924 12.0894C49.4764 12.2754 49.2374 12.4184 48.9764 12.5204C48.7154 12.6224 48.4564 12.6744 48.1984 12.6744Z" fill="white"/>
<path d="M52.972 12.5584C52.888 12.5584 52.826 12.5474 52.787 12.5224C52.748 12.4984 52.708 12.4304 52.666 12.3154L51.073 8.3204C51.061 8.2844 51.047 8.2474 51.032 8.2114C51.017 8.1764 51.01 8.1424 51.01 8.1134C51.01 8.0354 51.055 7.9964 51.145 7.9964H51.676C51.766 7.9964 51.829 8.0084 51.865 8.0324C51.901 8.0564 51.94 8.1244 51.982 8.2394L53.215 11.7484L54.448 8.2394C54.489 8.1244 54.529 8.0564 54.565 8.0324C54.601 8.0084 54.664 7.9964 54.754 7.9964H55.249C55.339 7.9964 55.384 8.0354 55.384 8.1134C55.384 8.1424 55.376 8.1764 55.361 8.2114C55.346 8.2474 55.333 8.2844 55.321 8.3204L53.737 12.3154C53.695 12.4304 53.654 12.4984 53.615 12.5224C53.576 12.5474 53.515 12.5584 53.431 12.5584H52.972Z" fill="white"/>
<path d="M57.3651 11.9984C57.5621 11.9984 57.7691 11.9594 57.9861 11.8824C58.2011 11.8044 58.4081 11.6894 58.6071 11.5394V10.6214C58.2821 10.5444 57.9651 10.5054 57.6531 10.5054C56.9741 10.5054 56.6361 10.7654 56.6361 11.2874C56.6361 11.5154 56.6991 11.6914 56.8241 11.8144C56.9501 11.9374 57.1311 11.9984 57.3651 11.9984ZM57.1491 12.6744C56.7221 12.6744 56.3821 12.5524 56.1271 12.3094C55.8721 12.0664 55.7441 11.7414 55.7441 11.3324C55.7441 10.8944 55.9011 10.5454 56.2131 10.2844C56.5241 10.0234 56.9451 9.89239 57.4721 9.89239C57.8081 9.89239 58.1861 9.94439 58.6071 10.0454V9.45239C58.6071 9.12739 58.5331 8.90039 58.3861 8.76739C58.2391 8.63639 57.9891 8.57039 57.6351 8.57039C57.2201 8.57039 56.8161 8.63039 56.4201 8.74939C56.2821 8.79139 56.1951 8.81239 56.1581 8.81239C56.0871 8.81239 56.0511 8.75939 56.0511 8.65139V8.40839C56.0511 8.32939 56.0621 8.27239 56.0871 8.23739C56.1111 8.20139 56.1581 8.16839 56.2301 8.13839C56.4161 8.05439 56.6521 7.98639 56.9371 7.93539C57.2221 7.88439 57.5051 7.85839 57.7871 7.85839C58.3571 7.85839 58.7781 7.97739 59.0481 8.21439C59.3181 8.45139 59.4521 8.81239 59.4521 9.29939V12.3764C59.4521 12.4964 59.3921 12.5564 59.2721 12.5564H58.8861C58.7711 12.5564 58.7051 12.4994 58.6871 12.3864L58.6421 12.0894C58.4271 12.2754 58.1881 12.4184 57.9271 12.5204C57.6661 12.6224 57.4071 12.6744 57.1491 12.6744Z" fill="white"/>
<path d="M60.8489 12.5591C60.7289 12.5591 60.6699 12.4991 60.6699 12.3791V8.17708C60.6699 8.05708 60.7289 7.99708 60.8489 7.99708H61.3799C61.4999 7.99708 61.5599 8.05708 61.5599 8.17708V12.3791C61.5599 12.4991 61.4999 12.5591 61.3799 12.5591H60.8489ZM61.1189 7.18608C60.9449 7.18608 60.8089 7.13708 60.7099 7.03808C60.6109 6.93908 60.5619 6.80908 60.5619 6.64608C60.5619 6.48408 60.6109 6.35408 60.7099 6.25508C60.8089 6.15608 60.9449 6.10608 61.1189 6.10608C61.2939 6.10608 61.4299 6.15608 61.5289 6.25508C61.6279 6.35408 61.6769 6.48408 61.6769 6.64608C61.6769 6.80908 61.6279 6.93908 61.5289 7.03808C61.4299 7.13708 61.2939 7.18608 61.1189 7.18608Z" fill="white"/>
<path d="M63.7762 12.602C63.4582 12.602 63.2142 12.511 63.0472 12.328C62.8792 12.145 62.7952 11.883 62.7952 11.54V6.07797C62.7952 5.95697 62.8552 5.89697 62.9752 5.89697H63.5052C63.6262 5.89697 63.6862 5.95697 63.6862 6.07797V11.487C63.6862 11.624 63.7142 11.725 63.7712 11.788C63.8282 11.851 63.9222 11.883 64.0542 11.883C64.0902 11.883 64.1282 11.88 64.1672 11.873C64.2062 11.868 64.2402 11.865 64.2712 11.865C64.3312 11.865 64.3712 11.88 64.3922 11.91C64.4132 11.94 64.4232 11.985 64.4232 12.044V12.332C64.4232 12.392 64.4102 12.439 64.3832 12.472C64.3562 12.505 64.3102 12.531 64.2442 12.549C64.0932 12.584 63.9382 12.602 63.7762 12.602Z" fill="white"/>
<path d="M66.5564 11.9984C66.7544 11.9984 66.9614 11.9594 67.1774 11.8824C67.3934 11.8044 67.6004 11.6894 67.7984 11.5394V10.6214C67.4744 10.5444 67.1564 10.5054 66.8444 10.5054C66.1664 10.5054 65.8274 10.7654 65.8274 11.2874C65.8274 11.5154 65.8904 11.6914 66.0164 11.8144C66.1424 11.9374 66.3224 11.9984 66.5564 11.9984ZM66.3404 12.6744C65.9144 12.6744 65.5744 12.5524 65.3194 12.3094C65.0644 12.0664 64.9364 11.7414 64.9364 11.3324C64.9364 10.8944 65.0924 10.5454 65.4044 10.2844C65.7164 10.0234 66.1364 9.89239 66.6644 9.89239C67.0004 9.89239 67.3784 9.94439 67.7984 10.0454V9.45239C67.7984 9.12739 67.7254 8.90039 67.5784 8.76739C67.4314 8.63639 67.1804 8.57039 66.8264 8.57039C66.4124 8.57039 66.0074 8.63039 65.6114 8.74939C65.4734 8.79139 65.3864 8.81239 65.3504 8.81239C65.2784 8.81239 65.2424 8.75939 65.2424 8.65139V8.40839C65.2424 8.32939 65.2544 8.27239 65.2784 8.23739C65.3024 8.20139 65.3504 8.16839 65.4224 8.13839C65.6084 8.05439 65.8444 7.98639 66.1294 7.93539C66.4144 7.88439 66.6974 7.85839 66.9794 7.85839C67.5494 7.85839 67.9694 7.97739 68.2394 8.21439C68.5104 8.45139 68.6454 8.81239 68.6454 9.29939V12.3764C68.6454 12.4964 68.5844 12.5564 68.4644 12.5564H68.0774C67.9634 12.5564 67.8974 12.4994 67.8794 12.3864L67.8344 12.0894C67.6184 12.2754 67.3804 12.4184 67.1194 12.5204C66.8584 12.6224 66.5984 12.6744 66.3404 12.6744Z" fill="white"/>
<path d="M71.9169 11.936C72.7449 11.936 73.1589 11.378 73.1589 10.263C73.1589 9.69297 73.0589 9.26897 72.8579 8.99397C72.6569 8.71797 72.3489 8.57897 71.9349 8.57897C71.5089 8.57897 71.1069 8.71797 70.7289 8.99397V11.504C71.1069 11.792 71.5029 11.936 71.9169 11.936ZM72.1239 12.657C71.5729 12.657 71.0889 12.465 70.6749 12.08L70.6129 12.377C70.5939 12.497 70.5249 12.557 70.4059 12.557H70.0179C69.8979 12.557 69.8379 12.497 69.8379 12.377V6.07797C69.8379 5.95697 69.8979 5.89697 70.0179 5.89697H70.5489C70.6689 5.89697 70.7289 5.95697 70.7289 6.07797V8.42697C71.1789 8.04897 71.6649 7.85897 72.1869 7.85897C72.7689 7.85897 73.2279 8.06997 73.5639 8.48997C73.8999 8.90997 74.0689 9.48597 74.0689 10.218C74.0689 10.955 73.8909 11.547 73.5369 11.991C73.1829 12.434 72.7119 12.657 72.1239 12.657Z" fill="white"/>
<path d="M76.0131 12.602C75.6951 12.602 75.4511 12.511 75.2831 12.328C75.1151 12.145 75.0321 11.883 75.0321 11.54V6.07797C75.0321 5.95697 75.0911 5.89697 75.2111 5.89697H75.7421C75.8631 5.89697 75.9221 5.95697 75.9221 6.07797V11.487C75.9221 11.624 75.9501 11.725 76.0081 11.788C76.0651 11.851 76.1591 11.883 76.2911 11.883C76.3271 11.883 76.3651 11.88 76.4041 11.873C76.4431 11.868 76.4781 11.865 76.5071 11.865C76.5681 11.865 76.6081 11.88 76.6291 11.91C76.6501 11.94 76.6601 11.985 76.6601 12.044V12.332C76.6601 12.392 76.6471 12.439 76.6201 12.472C76.5931 12.505 76.5461 12.531 76.4811 12.549C76.3301 12.584 76.1741 12.602 76.0131 12.602Z" fill="white"/>
<path d="M80.3285 9.87439C80.3345 9.82739 80.3375 9.74839 80.3375 9.64039C80.3375 9.27539 80.2525 8.99839 80.0805 8.81239C79.9095 8.62739 79.6595 8.53439 79.3295 8.53439C78.9515 8.53439 78.6575 8.64639 78.4475 8.87139C78.2375 9.09639 78.1175 9.43139 78.0875 9.87439H80.3285ZM79.4645 12.6914C78.7265 12.6914 78.1685 12.4884 77.7905 12.0794C77.4125 11.6724 77.2235 11.0694 77.2235 10.2704C77.2235 9.50939 77.4125 8.91639 77.7905 8.49339C78.1685 8.07039 78.6965 7.85839 79.3745 7.85839C79.9455 7.85839 80.3825 8.01939 80.6895 8.34039C80.9945 8.66139 81.1485 9.11639 81.1485 9.70339C81.1485 9.89539 81.1325 10.0914 81.1025 10.2884C81.0905 10.3614 81.0705 10.4094 81.0445 10.4324C81.0175 10.4564 80.9735 10.4694 80.9135 10.4694H78.0875C78.0995 10.9854 78.2275 11.3664 78.4705 11.6124C78.7135 11.8584 79.0895 11.9804 79.5995 11.9804C79.7795 11.9804 79.9515 11.9694 80.1165 11.9454C80.2815 11.9214 80.4905 11.8694 80.7425 11.7914C80.7845 11.7804 80.8205 11.7694 80.8505 11.7604C80.8805 11.7514 80.9075 11.7464 80.9315 11.7464C81.0095 11.7464 81.0485 11.8014 81.0485 11.9094V12.1604C81.0485 12.2394 81.0365 12.2944 81.0125 12.3274C80.9885 12.3604 80.9375 12.3944 80.8605 12.4304C80.6795 12.5094 80.4655 12.5724 80.2165 12.6194C79.9675 12.6674 79.7165 12.6914 79.4645 12.6914Z" fill="white"/>
<path d="M85.6353 11.9984C85.8333 11.9984 86.0403 11.9594 86.2563 11.8824C86.4723 11.8044 86.6793 11.6894 86.8773 11.5394V10.6214C86.5533 10.5444 86.2343 10.5054 85.9233 10.5054C85.2443 10.5054 84.9053 10.7654 84.9053 11.2874C84.9053 11.5154 84.9693 11.6914 85.0953 11.8144C85.2213 11.9374 85.4003 11.9984 85.6353 11.9984ZM85.4193 12.6744C84.9923 12.6744 84.6523 12.5524 84.3983 12.3094C84.1433 12.0664 84.0153 11.7414 84.0153 11.3324C84.0153 10.8944 84.1713 10.5454 84.4833 10.2844C84.7953 10.0234 85.2153 9.89239 85.7433 9.89239C86.0793 9.89239 86.4573 9.94439 86.8773 10.0454V9.45239C86.8773 9.12739 86.8033 8.90039 86.6563 8.76739C86.5093 8.63639 86.2593 8.57039 85.9043 8.57039C85.4903 8.57039 85.0863 8.63039 84.6903 8.74939C84.5523 8.79139 84.4653 8.81239 84.4293 8.81239C84.3573 8.81239 84.3203 8.75939 84.3203 8.65139V8.40839C84.3203 8.32939 84.3333 8.27239 84.3573 8.23739C84.3813 8.20139 84.4293 8.16839 84.5013 8.13839C84.6873 8.05439 84.9223 7.98639 85.2073 7.93539C85.4923 7.88439 85.7753 7.85839 86.0583 7.85839C86.6283 7.85839 87.0483 7.97739 87.3173 8.21439C87.5883 8.45139 87.7233 8.81239 87.7233 9.29939V12.3764C87.7233 12.4964 87.6633 12.5564 87.5433 12.5564H87.1553C87.0423 12.5564 86.9763 12.4994 86.9583 12.3864L86.9133 12.0894C86.6963 12.2754 86.4583 12.4184 86.1973 12.5204C85.9373 12.6224 85.6773 12.6744 85.4193 12.6744Z" fill="white"/>
<path d="M90.4801 12.6197C89.6271 12.6197 89.2011 12.1947 89.2011 11.3427V8.69667H88.5531C88.4331 8.69667 88.3731 8.63667 88.3731 8.51567V8.29067C88.3731 8.23167 88.3871 8.18567 88.4131 8.15667C88.4411 8.12567 88.4931 8.10467 88.5711 8.09367L89.2291 8.01267L89.3451 6.89567C89.3581 6.77667 89.4201 6.71667 89.5341 6.71667H89.9121C90.0321 6.71667 90.0921 6.77667 90.0921 6.89567V7.99467H91.2621C91.3821 7.99467 91.4431 8.05467 91.4431 8.17467V8.51567C91.4431 8.63667 91.3821 8.69667 91.2621 8.69667H90.0921V11.2977C90.0921 11.5187 90.1421 11.6757 90.2401 11.7647C90.3401 11.8547 90.5091 11.8997 90.7491 11.8997C90.8631 11.8997 91.0041 11.8857 91.1721 11.8547C91.2621 11.8367 91.3221 11.8277 91.3531 11.8277C91.4011 11.8277 91.4331 11.8417 91.4511 11.8687C91.4691 11.8957 91.4791 11.9397 91.4791 11.9987V12.2427C91.4791 12.3207 91.4661 12.3787 91.4431 12.4177C91.4181 12.4567 91.3701 12.4887 91.2981 12.5127C91.0651 12.5837 90.7911 12.6197 90.4801 12.6197Z" fill="white"/>
</g>
<defs>
<clipPath id="clip0_857_1104">
<rect width="137" height="40" fill="white" transform="translate(0.489868)"/>
</clipPath>
</defs>
</svg>
