<svg width="125" height="40" viewBox="0 0 125 40" fill="none" xmlns="http://www.w3.org/2000/svg">
<g clip-path="url(#clip0_857_1057)">
<path d="M8.20984 40.1318C7.88912 40.1318 7.57615 40.1277 7.25796 40.1205C6.59878 40.112 5.94114 40.0546 5.29044 39.9489C4.68369 39.8444 4.09592 39.65 3.5465 39.3721C3.00212 39.0966 2.50561 38.7353 2.07598 38.302C1.64012 37.8739 1.27726 37.3773 1.00175 36.832C0.723217 36.2832 0.530452 35.6949 0.430176 35.0876C0.321885 34.4351 0.263296 33.7753 0.254913 33.1139C0.248239 32.8919 0.239502 32.1528 0.239502 32.1528V7.83638C0.239502 7.83638 0.248807 7.10858 0.254965 6.89476C0.262992 6.23442 0.321241 5.57566 0.429207 4.92416C0.529669 4.31523 0.722583 3.72523 1.00127 3.17458C1.27576 2.62965 1.63661 2.13272 2.06984 1.70305C2.50258 1.26931 3.00068 0.90613 3.54599 0.626768C4.09414 0.349803 4.6808 0.156792 5.28632 0.0541997C5.93916 -0.0525728 6.59908 -0.110299 7.26054 -0.118495L8.21035 -0.131348H116.388L117.349 -0.117979C118.004 -0.110191 118.658 -0.0529792 119.305 0.0531681C119.917 0.157047 120.51 0.351406 121.064 0.629852C122.156 1.19285 123.045 2.08356 123.606 3.17715C123.88 3.724 124.07 4.30919 124.169 4.91285C124.279 5.5697 124.34 6.23364 124.352 6.89939C124.355 7.19749 124.355 7.5177 124.355 7.83638C124.364 8.23112 124.364 8.60683 124.364 8.98563V31.0158C124.364 31.3982 124.364 31.7714 124.355 32.1476C124.355 32.4899 124.355 32.8035 124.351 33.1262C124.339 33.7801 124.279 34.4322 124.171 35.0773C124.073 35.6889 123.882 36.2818 123.603 36.8352C123.326 37.3746 122.965 37.8668 122.534 38.2938C122.104 38.7294 121.607 39.0928 121.061 39.3701C120.508 39.6501 119.916 39.8452 119.305 39.9489C118.654 40.0551 117.997 40.1125 117.338 40.1205C117.029 40.1277 116.706 40.1318 116.393 40.1318L115.252 40.1339L8.20984 40.1318Z" fill="black"/>
<path fill-rule="evenodd" clip-rule="evenodd" d="M77.9302 29.5536C76.2094 29.5536 74.9502 28.7025 74.8052 27.4063L72.8027 27.4062C72.9292 29.7705 74.8864 31.2662 77.7853 31.2662C80.8835 31.2662 82.8315 29.7345 82.8315 27.289C82.8315 25.377 81.7172 24.2997 79.0353 23.6654L77.5951 23.3118C75.9103 22.8955 75.2215 22.3517 75.2215 21.4276C75.2215 20.2681 76.2999 19.4714 77.8757 19.4714C79.4516 19.4714 80.5299 20.2588 80.6481 21.5633H82.6229C82.5591 19.3079 80.6656 17.7588 77.9035 17.7588C75.1126 17.7588 73.1471 19.3079 73.1471 21.5633C73.1471 23.3848 74.2615 24.5074 76.6617 25.0871L78.3558 25.4952C80.0499 25.9116 80.7653 26.5191 80.7653 27.5337C80.7653 28.7025 79.5791 29.5536 77.9302 29.5536ZM38.8667 27.5152H43.8492L45.0447 31.0483H47.1911L42.4717 17.9767H40.2791L35.5597 31.0483H37.6701L38.8667 27.5152ZM43.3322 25.8849H39.3827L41.3307 20.1509H41.3852L43.3322 25.8849ZM53.4062 31.148C55.7982 31.148 57.3834 29.2453 57.3834 26.2837C57.3834 23.3304 55.7889 21.4184 53.3702 21.4184C52.7593 21.3987 52.1545 21.545 51.6202 21.8416C51.0859 22.1383 50.6419 22.5743 50.3357 23.1032H50.2997V21.5181H48.4061V34.2011H50.3624V29.4807H50.4076C50.7004 30.0121 51.137 30.4504 51.6673 30.7453C52.1976 31.0401 52.8002 31.1797 53.4062 31.148ZM52.8542 23.0857C54.3755 23.0857 55.3727 24.3543 55.3727 26.2837C55.3727 28.2307 54.3755 29.4899 52.8542 29.4899C51.3595 29.4899 50.3542 28.204 50.3542 26.2837C50.3542 24.381 51.3595 23.0857 52.8542 23.0857ZM67.8727 26.2837C67.8727 29.2453 66.2875 31.148 63.8955 31.148C63.2895 31.1797 62.6869 31.0401 62.1566 30.7453C61.6263 30.4504 61.1897 30.0121 60.8969 29.4807H60.8517V34.2011H58.8955V21.5181H60.7889V23.1032H60.8249C61.1312 22.5743 61.5751 22.1383 62.1095 21.8416C62.6438 21.545 63.2486 21.3987 63.8595 21.4184C66.2783 21.4184 67.8727 23.3304 67.8727 26.2837ZM65.862 26.2837C65.862 24.3542 64.8648 23.0857 63.3435 23.0857C61.8488 23.0857 60.8435 24.381 60.8435 26.2837C60.8435 28.204 61.8488 29.4899 63.3435 29.4899C64.8649 29.4899 65.862 28.2307 65.862 26.2837ZM87.0533 19.2627V21.5181H88.8656V23.0672H87.0533V28.3211C87.0533 29.1373 87.4162 29.5177 88.2129 29.5177C88.428 29.5139 88.6428 29.4988 88.8564 29.4724V31.0123C88.4982 31.0792 88.1341 31.1095 87.7698 31.1028C85.8404 31.1028 85.0879 30.378 85.0879 28.5298V23.0672H83.7022V21.5181H85.0879V19.2627H87.0533ZM94.4351 21.4009C91.6812 21.4009 89.9152 23.2852 89.9152 26.2837C89.9152 29.2905 91.6637 31.1665 94.4351 31.1665C97.2075 31.1665 98.9561 29.2905 98.9561 26.2837C98.9561 23.2851 97.1983 21.4009 94.4351 21.4009ZM94.4351 23.0128C96.0202 23.0128 96.9629 24.2268 96.9629 26.2837H96.9628C96.9628 28.3489 96.0202 29.5537 94.4351 29.5537C92.85 29.5537 91.9084 28.3489 91.9084 26.2837C91.9084 24.236 92.85 23.0128 94.4351 23.0128ZM100.569 21.5181H102.435V23.1402H102.48C102.606 22.6336 102.903 22.1859 103.32 21.8723C103.738 21.5587 104.251 21.3984 104.772 21.4184C104.998 21.4176 105.223 21.4421 105.443 21.4914V23.3211C105.158 23.2342 104.861 23.1942 104.564 23.2029C104.279 23.1914 103.996 23.2415 103.733 23.3498C103.47 23.4581 103.234 23.622 103.04 23.8303C102.846 24.0386 102.7 24.2864 102.611 24.5566C102.522 24.8267 102.493 25.1129 102.525 25.3955V31.0483H100.569L100.569 21.5181ZM110.358 31.1665C112.514 31.1665 114.198 29.9792 114.462 28.2492L112.604 28.2492C112.43 28.6798 112.122 29.0428 111.726 29.2844C111.329 29.5259 110.865 29.6329 110.403 29.5896C110.051 29.6026 109.701 29.5405 109.375 29.4076C109.049 29.2746 108.755 29.0738 108.512 28.8185C108.27 28.5632 108.084 28.2592 107.968 27.9267C107.852 27.5943 107.808 27.2409 107.839 26.8902V26.772H114.571V26.1018C114.571 23.2122 112.912 21.4009 110.276 21.4009C107.595 21.4009 105.865 23.3396 105.865 26.3289C105.865 29.309 107.586 31.1665 110.358 31.1665ZM112.613 25.4048H107.849C107.848 25.0863 107.91 24.7707 108.032 24.4763C108.154 24.1819 108.333 23.9146 108.558 23.6897C108.784 23.4648 109.052 23.2869 109.347 23.1661C109.641 23.0453 109.957 22.9841 110.276 22.986C110.592 22.9792 110.905 23.0378 111.197 23.158C111.489 23.2782 111.754 23.4575 111.973 23.6847C112.193 23.9118 112.363 24.1818 112.473 24.4778C112.583 24.7739 112.631 25.0894 112.613 25.4048Z" fill="white"/>
<path fill-rule="evenodd" clip-rule="evenodd" d="M62.4599 7.82861H61.5245V14.4189H62.4599V7.82861ZM39.1375 8.13809C39.5476 8.10866 39.9592 8.17062 40.3425 8.31949C40.7257 8.46837 41.0712 8.70045 41.3539 8.99901C41.6366 9.29756 41.8496 9.65514 41.9774 10.0459C42.1052 10.4368 42.1446 10.8511 42.0929 11.259C42.0929 13.2656 41.0084 14.419 39.1375 14.419H36.8688V8.13809H39.1375ZM37.8443 13.5307H39.0286C39.3216 13.5482 39.6149 13.5002 39.887 13.3901C40.1592 13.2799 40.4034 13.1105 40.6018 12.8941C40.8002 12.6778 40.9478 12.4199 41.034 12.1392C41.1202 11.8586 41.1427 11.5622 41.0999 11.2718C41.1396 10.9825 41.1148 10.688 41.0273 10.4094C40.9398 10.1308 40.7918 9.875 40.5938 9.66034C40.3959 9.44567 40.1529 9.27745 39.8823 9.16773C39.6116 9.05801 39.3201 9.0095 39.0286 9.02568H37.8443V13.5307ZM43.1949 12.0469C43.1651 11.7354 43.2008 11.4211 43.2995 11.1242C43.3983 10.8273 43.5581 10.5543 43.7685 10.3227C43.979 10.0911 44.2355 9.90613 44.5217 9.77952C44.8079 9.65292 45.1173 9.58752 45.4302 9.58752C45.7431 9.58752 46.0526 9.65292 46.3388 9.77952C46.6249 9.90613 46.8815 10.0911 47.0919 10.3227C47.3024 10.5543 47.4621 10.8273 47.5609 11.1242C47.6597 11.4211 47.6953 11.7354 47.6655 12.0469C47.6959 12.3587 47.6607 12.6734 47.5622 12.9708C47.4636 13.2682 47.304 13.5417 47.0935 13.7737C46.883 14.0057 46.6262 14.1911 46.3398 14.318C46.0533 14.4449 45.7435 14.5104 45.4302 14.5104C45.1169 14.5104 44.8071 14.4449 44.5207 14.318C44.2342 14.1911 43.9775 14.0057 43.767 13.7737C43.5565 13.5417 43.3968 13.2682 43.2983 12.9708C43.1998 12.6734 43.1646 12.3587 43.1949 12.0469ZM46.7033 12.0469C46.7033 11.0194 46.2418 10.4186 45.4318 10.4186C44.6187 10.4186 44.1612 11.0194 44.1612 12.0469C44.1612 13.0825 44.6187 13.6788 45.4318 13.6788C46.2418 13.6787 46.7034 13.0784 46.7034 12.0469H46.7033ZM52.6377 14.4189H53.6081L54.9095 9.67896H53.9741L53.1291 13.2958H53.0551L52.0806 9.67896H51.1832L50.2087 13.2958H50.1388L49.2897 9.67896H48.3409L49.6474 14.4189H50.6085L51.5841 10.9279H51.6581L52.6377 14.4189ZM56.0084 9.67896H56.9089V10.4319H56.9788C57.0974 10.1615 57.2974 9.93479 57.551 9.78341C57.8045 9.63204 58.099 9.56354 58.3933 9.58746C58.6239 9.57012 58.8555 9.6049 59.0709 9.68921C59.2862 9.77352 59.4799 9.90521 59.6374 10.0745C59.795 10.2438 59.9124 10.4464 59.9811 10.6673C60.0497 10.8881 60.0678 11.1216 60.0339 11.3504V14.4188H59.0985V11.5853C59.0985 10.8236 58.7675 10.4448 58.0756 10.4448C57.9191 10.4375 57.7627 10.4641 57.6174 10.5229C57.4721 10.5817 57.3412 10.6712 57.2337 10.7853C57.1262 10.8994 57.0446 11.0353 56.9946 11.1839C56.9446 11.3325 56.9273 11.4901 56.9439 11.646V14.4189H56.0084L56.0084 9.67896ZM63.7603 12.0469C63.7305 11.7354 63.7662 11.4211 63.865 11.1241C63.9638 10.8272 64.1235 10.5542 64.334 10.3226C64.5445 10.0911 64.8011 9.90605 65.0872 9.77945C65.3734 9.65284 65.6829 9.58744 65.9958 9.58744C66.3088 9.58744 66.6183 9.65284 66.9044 9.77945C67.1906 9.90605 67.4472 10.0911 67.6577 10.3226C67.8681 10.5542 68.0279 10.8272 68.1267 11.1241C68.2255 11.4211 68.2612 11.7354 68.2314 12.0469C68.2617 12.3587 68.2265 12.6734 68.1279 12.9708C68.0294 13.2682 67.8697 13.5417 67.6592 13.7737C67.4486 14.0057 67.1919 14.1911 66.9054 14.318C66.619 14.4448 66.3091 14.5104 65.9958 14.5104C65.6825 14.5104 65.3727 14.4448 65.0863 14.318C64.7998 14.1911 64.543 14.0057 64.3325 13.7737C64.122 13.5417 63.9623 13.2682 63.8637 12.9708C63.7652 12.6734 63.73 12.3587 63.7603 12.0469ZM67.2687 12.0469C67.2687 11.0194 66.8071 10.4186 65.9971 10.4186C65.184 10.4186 64.7266 11.0194 64.7266 12.0469C64.7266 13.0826 65.184 13.6788 65.9971 13.6788C66.8072 13.6788 67.2687 13.0784 67.2687 12.0469ZM70.9791 11.6634C69.8514 11.7333 69.2162 12.2252 69.2162 13.0784C69.217 13.2785 69.2596 13.4761 69.3415 13.6587C69.4234 13.8412 69.5426 14.0046 69.6914 14.1382C69.8403 14.2719 70.0155 14.3729 70.2058 14.4347C70.396 14.4964 70.5972 14.5177 70.7961 14.497C71.0781 14.51 71.3584 14.448 71.6086 14.3172C71.8587 14.1865 72.0696 13.9917 72.2199 13.7528H72.2939V14.4189H73.1944V11.1803C73.1944 10.179 72.5241 9.58747 71.3358 9.58747C70.2606 9.58747 69.4947 10.1097 69.3991 10.9238H70.3048C70.4086 10.5887 70.7704 10.397 71.2926 10.397C71.932 10.397 72.263 10.6797 72.263 11.1803V11.5894L70.9791 11.6634ZM72.263 12.2771V12.6734C72.2529 12.8229 72.2128 12.9689 72.1451 13.1026C72.0774 13.2363 71.9835 13.355 71.869 13.4517C71.7545 13.5484 71.6217 13.621 71.4786 13.6653C71.3354 13.7096 71.1848 13.7247 71.0357 13.7096C70.5268 13.7096 70.1567 13.4613 70.1567 13.0347C70.1567 12.6169 70.4528 12.3948 71.1056 12.3511L72.263 12.2771ZM74.4238 12.0469C74.4238 10.5491 75.1938 9.60032 76.3913 9.60032C76.6876 9.58667 76.9816 9.65762 77.2389 9.80488C77.4963 9.95213 77.7065 10.1696 77.8449 10.4319H77.9148V7.82861H78.8502V14.4189H77.9538V13.67H77.8798C77.7308 13.9305 77.5133 14.1453 77.2509 14.2911C76.9885 14.4368 76.6913 14.508 76.3913 14.497C75.1855 14.497 74.4238 13.5482 74.4238 12.0469ZM75.3901 12.0469C75.3901 13.0522 75.864 13.6572 76.6566 13.6572C77.445 13.6572 77.9323 13.0435 77.9323 12.051C77.9323 11.0631 77.4399 10.4407 76.6566 10.4407C75.8691 10.4407 75.3901 11.0497 75.3901 12.0469H75.3901ZM82.8251 11.1242C82.7264 11.4211 82.6907 11.7354 82.7205 12.0469C82.6902 12.3587 82.7254 12.6734 82.8239 12.9708C82.9224 13.2682 83.0821 13.5417 83.2926 13.7737C83.5031 14.0057 83.7598 14.1911 84.0463 14.318C84.3327 14.4449 84.6425 14.5104 84.9558 14.5104C85.2691 14.5104 85.5789 14.4449 85.8654 14.318C86.1518 14.1911 86.4086 14.0057 86.6191 13.7737C86.8296 13.5417 86.9892 13.2682 87.0878 12.9708C87.1863 12.6734 87.2215 12.3587 87.1911 12.0469C87.2209 11.7354 87.1853 11.4211 87.0865 11.1242C86.9877 10.8273 86.828 10.5543 86.6175 10.3227C86.407 10.0911 86.1505 9.90613 85.8644 9.77952C85.5782 9.65292 85.2687 9.58752 84.9558 9.58752C84.6429 9.58752 84.3334 9.65292 84.0473 9.77952C83.7611 9.90613 83.5046 10.0911 83.2941 10.3227C83.0837 10.5543 82.9239 10.8273 82.8251 11.1242ZM84.9574 10.4186C85.7674 10.4186 86.2289 11.0194 86.2289 12.0469C86.2289 13.0784 85.7674 13.6787 84.9574 13.6788C84.1443 13.6788 83.6868 13.0825 83.6868 12.0469C83.6868 11.0194 84.1442 10.4186 84.9574 10.4186ZM88.4462 9.67896H89.3467V10.4319H89.4166C89.5352 10.1615 89.7352 9.93479 89.9888 9.78341C90.2423 9.63204 90.5368 9.56354 90.8311 9.58746C91.0617 9.57012 91.2933 9.6049 91.5087 9.68921C91.724 9.77352 91.9177 9.90521 92.0752 10.0745C92.2328 10.2438 92.3503 10.4464 92.4189 10.6673C92.4875 10.8881 92.5056 11.1216 92.4717 11.3504V14.4188H91.5363V11.5853C91.5363 10.8236 91.2053 10.4448 90.5135 10.4448C90.3569 10.4375 90.2006 10.4641 90.0552 10.5229C89.9099 10.5817 89.779 10.6712 89.6715 10.7853C89.564 10.8994 89.4825 11.0353 89.4324 11.1839C89.3824 11.3325 89.3651 11.4901 89.3817 11.646V14.4189H88.4462V9.67896ZM97.7575 9.70054V8.49886H96.821V9.7005H96.0686V10.4884H96.821V13.1653C96.821 14.0791 97.2353 14.4451 98.2756 14.4451C98.4462 14.4433 98.6164 14.4273 98.7844 14.3973V13.6181C98.666 13.6321 98.5469 13.6393 98.4277 13.6397C97.9621 13.6397 97.7575 13.4223 97.7575 12.9258V10.4885H98.7844V9.70054H97.7575ZM100.062 7.82861H100.989V10.4407H101.063C101.188 10.1677 101.393 9.93971 101.652 9.78776C101.911 9.63582 102.21 9.56731 102.509 9.59157C102.738 9.57909 102.967 9.61739 103.18 9.70375C103.393 9.79011 103.585 9.9224 103.74 10.0912C103.896 10.26 104.013 10.4611 104.082 10.6801C104.152 10.8992 104.172 11.1309 104.141 11.3586V14.4189H103.205V11.5894C103.205 10.8323 102.852 10.4489 102.191 10.4489C102.03 10.4357 101.869 10.4578 101.717 10.5136C101.566 10.5695 101.429 10.6577 101.315 10.7722C101.201 10.8866 101.114 11.0246 101.059 11.1763C101.004 11.328 100.983 11.4899 100.998 11.6506V14.4189H100.062L100.062 7.82861ZM108.817 14.1977C109.193 13.947 109.468 13.5723 109.595 13.1391L108.695 13.139C108.585 13.3359 108.419 13.4956 108.218 13.5979C108.018 13.7002 107.791 13.7405 107.567 13.7137C107.393 13.7156 107.22 13.681 107.059 13.6122C106.899 13.5434 106.755 13.4418 106.636 13.3139C106.517 13.1861 106.426 13.0348 106.369 12.8698C106.312 12.7048 106.29 12.5297 106.305 12.3558V12.3034H109.652V11.9769C109.652 10.4885 108.856 9.58747 107.537 9.58747C107.224 9.5848 106.914 9.64944 106.628 9.77703C106.342 9.90462 106.087 10.0922 105.88 10.327C105.672 10.5618 105.518 10.8384 105.427 11.138C105.336 11.4377 105.31 11.7534 105.352 12.0638C105.309 12.3733 105.334 12.6883 105.426 12.9871C105.517 13.2858 105.672 13.5612 105.88 13.7939C106.089 14.0267 106.345 14.2114 106.632 14.3351C106.919 14.4588 107.229 14.5186 107.542 14.5104C107.99 14.559 108.442 14.4484 108.817 14.1977ZM108.699 11.6115H106.305C106.303 11.4497 106.333 11.2892 106.394 11.1393C106.455 10.9894 106.545 10.8532 106.66 10.7388C106.774 10.6243 106.91 10.534 107.06 10.473C107.21 10.412 107.37 10.3816 107.532 10.3836C107.692 10.38 107.85 10.4097 107.997 10.471C108.145 10.5322 108.278 10.6236 108.388 10.7392C108.497 10.8548 108.582 10.9922 108.636 11.1424C108.689 11.2927 108.711 11.4524 108.699 11.6115Z" fill="white"/>
<path d="M25.3932 20.3165C25.4045 19.4379 25.6378 18.5764 26.0716 17.8123C26.5053 17.0481 27.1252 16.4061 27.8737 15.9459C27.3982 15.2668 26.7709 14.7079 26.0416 14.3136C25.3123 13.9193 24.5012 13.7006 23.6725 13.6746C21.9049 13.4891 20.1913 14.7324 19.2905 14.7324C18.3723 14.7324 16.9855 13.6931 15.4921 13.7238C14.5261 13.755 13.5847 14.0359 12.7596 14.5391C11.9344 15.0423 11.2537 15.7507 10.7838 16.5952C8.74797 20.1199 10.2665 25.2999 12.2166 28.149C13.1923 29.5441 14.3326 31.1025 15.8246 31.0472C17.2847 30.9867 17.83 30.1162 19.5924 30.1162C21.3385 30.1162 21.8501 31.0472 23.3724 31.0121C24.9391 30.9866 25.9262 29.6108 26.8677 28.2024C27.5687 27.2084 28.1082 26.1097 28.466 24.9472C27.5558 24.5622 26.7791 23.9178 26.2326 23.0943C25.6862 22.2709 25.3942 21.3048 25.3932 20.3165Z" fill="white"/>
<path d="M22.5177 11.8008C23.3719 10.7753 23.7928 9.45724 23.6909 8.12646C22.3858 8.26354 21.1803 8.88729 20.3145 9.87342C19.8912 10.3552 19.567 10.9156 19.3604 11.5228C19.1538 12.1299 19.0689 12.7718 19.1106 13.4117C19.7634 13.4184 20.4092 13.277 20.9993 12.9979C21.5895 12.7189 22.1087 12.3096 22.5177 11.8008Z" fill="white"/>
</g>
<defs>
<clipPath id="clip0_857_1057">
<rect width="124.211" height="40" fill="white" transform="translate(0.510117)"/>
</clipPath>
</defs>
</svg>
