<svg width="136" height="40" viewBox="0 0 136 40" fill="none" xmlns="http://www.w3.org/2000/svg">
<g clip-path="url(#clip0_857_1085)">
<path fill-rule="evenodd" clip-rule="evenodd" d="M130.699 40H5.74225C2.97463 40 0.720642 37.7456 0.720642 35V5C0.720642 2.24439 2.97463 0 5.74225 0H130.699C133.464 0 135.721 2.24439 135.721 5V35C135.721 37.7456 133.464 40 130.699 40Z" fill="black"/>
<path d="M68.8566 21.7519C66.5046 21.7519 64.5876 23.5399 64.5876 26.0049C64.5876 28.4539 66.5046 30.2579 68.8566 30.2579C71.2086 30.2579 73.1256 28.4539 73.1256 26.0049C73.1256 23.5399 71.2086 21.7519 68.8566 21.7519ZM68.8566 28.5829C67.5676 28.5829 66.4556 27.5199 66.4556 26.0049C66.4556 24.4739 67.5676 23.4269 68.8566 23.4269C70.1456 23.4269 71.2566 24.4739 71.2566 26.0049C71.2566 27.5189 70.1456 28.5829 68.8566 28.5829ZM59.5426 21.7519C57.1906 21.7519 55.2736 23.5399 55.2736 26.0049C55.2736 28.4539 57.1906 30.2579 59.5426 30.2579C61.8946 30.2579 63.8116 28.4539 63.8116 26.0049C63.8126 23.5399 61.8946 21.7519 59.5426 21.7519ZM59.5426 28.5829C58.2536 28.5829 57.1426 27.5199 57.1426 26.0049C57.1426 24.4739 58.2546 23.4269 59.5426 23.4269C60.8316 23.4269 61.9426 24.4739 61.9426 26.0049C61.9436 27.5189 60.8316 28.5829 59.5426 28.5829ZM48.4646 23.0569V24.8609H52.7826C52.6536 25.8759 52.3156 26.6169 51.7996 27.1329C51.1716 27.7609 50.1886 28.4539 48.4646 28.4539C45.8066 28.4539 43.7286 26.3109 43.7286 23.6529C43.7286 20.9949 45.8066 18.8519 48.4646 18.8519C49.8986 18.8519 50.9456 19.4159 51.7186 20.1409L52.9916 18.8679C51.9126 17.8369 50.4786 17.0469 48.4646 17.0469C44.8236 17.0469 41.7626 20.0109 41.7626 23.6519C41.7626 27.2929 44.8236 30.2569 48.4646 30.2569C50.4296 30.2569 51.9126 29.6129 53.0726 28.4039C54.2646 27.2119 54.6356 25.5359 54.6356 24.1829C54.6356 23.7639 54.6036 23.3769 54.5386 23.0549H48.4646V23.0569ZM93.7726 24.4579C93.4186 23.5069 92.3386 21.7509 90.1316 21.7509C87.9406 21.7509 86.1206 23.4749 86.1206 26.0039C86.1206 28.3879 87.9246 30.2569 90.3416 30.2569C92.2906 30.2569 93.4186 29.0649 93.8856 28.3719L92.4356 27.4049C91.9526 28.1139 91.2916 28.5809 90.3416 28.5809C89.3906 28.5809 88.7146 28.1459 88.2796 27.2919L93.9666 24.9399L93.7726 24.4579ZM87.9726 25.8759C87.9246 24.2329 89.2456 23.3949 90.1956 23.3949C90.9366 23.3949 91.5646 23.7649 91.7746 24.2969L87.9726 25.8759ZM83.3486 29.9999H85.2176V17.4989H83.3486V29.9999ZM80.2876 22.7019H80.2236C79.8046 22.2029 78.9996 21.7509 77.9846 21.7509C75.8576 21.7509 73.9086 23.6199 73.9086 26.0199C73.9086 28.4039 75.8576 30.2569 77.9846 30.2569C78.9996 30.2569 79.8046 29.8059 80.2236 29.2899H80.2876V29.9019C80.2876 31.5289 79.4176 32.3989 78.0156 32.3989C76.8716 32.3989 76.1626 31.5769 75.8726 30.8849L74.2456 31.5619C74.7126 32.6899 75.9536 34.0749 78.0156 34.0749C80.2066 34.0749 82.0596 32.7859 82.0596 29.6449V22.0089H80.2876V22.7019ZM78.1456 28.5829C76.8566 28.5829 75.7776 27.5039 75.7776 26.0209C75.7776 24.5229 76.8566 23.4269 78.1456 23.4269C79.4186 23.4269 80.4166 24.5219 80.4166 26.0209C80.4166 27.5029 79.4186 28.5829 78.1456 28.5829ZM102.527 17.4989H98.0556V29.9999H99.9206V25.2639H102.526C104.594 25.2639 106.627 23.7669 106.627 21.3819C106.627 18.9969 104.595 17.4989 102.527 17.4989ZM102.575 23.5239H99.9206V19.2389H102.575C103.97 19.2389 104.762 20.3939 104.762 21.3819C104.762 22.3499 103.97 23.5239 102.575 23.5239ZM114.107 21.7289C112.756 21.7289 111.357 22.3239 110.778 23.6429L112.435 24.3349C112.789 23.6429 113.448 23.4179 114.14 23.4179C115.105 23.4179 116.086 23.9969 116.102 25.0259V25.1549C115.764 24.9619 115.04 24.6719 114.156 24.6719C112.371 24.6719 110.553 25.6529 110.553 27.4869C110.553 29.1599 112.017 30.2369 113.657 30.2369C114.912 30.2369 115.603 29.6739 116.037 29.0149H116.101V29.9799H117.902V25.1869C117.902 22.9669 116.246 21.7289 114.107 21.7289ZM113.881 28.5799C113.27 28.5799 112.417 28.2739 112.417 27.5189C112.417 26.5539 113.479 26.1839 114.395 26.1839C115.215 26.1839 115.601 26.3609 116.1 26.6019C115.956 27.7599 114.959 28.5799 113.881 28.5799ZM124.464 22.0019L122.325 27.4219H122.261L120.042 22.0019H118.032L121.361 29.5769L119.463 33.7909H121.409L126.54 22.0019H124.464ZM107.657 29.9999H109.523V17.4989H107.657V29.9999Z" fill="white"/>
<path d="M21.4376 19.4243L10.7906 30.7243C10.7916 30.7263 10.7916 30.7283 10.7926 30.7303C11.1186 31.9583 12.2396 32.8613 13.5696 32.8613C14.1016 32.8613 14.6006 32.7173 15.0286 32.4653L15.0626 32.4453L27.0466 25.5303L21.4376 19.4243Z" fill="#EA4335"/>
<path d="M32.2087 17.5002L32.1987 17.4932L27.0247 14.4932L21.1957 19.6802L27.0447 25.5282L32.1917 22.5592C33.0937 22.0722 33.7057 21.1212 33.7057 20.0242C33.7057 18.9352 33.1017 17.9882 32.2087 17.5002Z" fill="#FBBC04"/>
<path d="M10.7906 9.27734C10.7266 9.51334 10.6926 9.76034 10.6926 10.0173V29.9843C10.6926 30.2413 10.7256 30.4893 10.7906 30.7243L21.8036 19.7133L10.7906 9.27734Z" fill="#4285F4"/>
<path d="M21.5156 20.0001L27.0266 14.4911L15.0556 7.55114C14.6206 7.29014 14.1136 7.14014 13.5696 7.14014C12.2396 7.14014 11.1176 8.04514 10.7906 9.27414V9.27714L21.5156 20.0001Z" fill="#34A853"/>
<path d="M48.0956 9.79121H45.1876V10.5122H47.3666C47.3076 11.0982 47.0726 11.5592 46.6796 11.8942C46.2856 12.2292 45.7826 12.3972 45.1876 12.3972C44.5336 12.3972 43.9806 12.1712 43.5286 11.7182C43.0846 11.2572 42.8576 10.6882 42.8576 10.0002C42.8576 9.31321 43.0846 8.74321 43.5286 8.28221C43.9806 7.83021 44.5336 7.60421 45.1876 7.60421C45.5226 7.60421 45.8416 7.66221 46.1346 7.78821C46.4276 7.91421 46.6626 8.09021 46.8466 8.31621L47.3996 7.76321C47.1486 7.47821 46.8296 7.26021 46.4366 7.10121C46.0426 6.94221 45.6316 6.86621 45.1876 6.86621C44.3156 6.86621 43.5786 7.16821 42.9756 7.77121C42.3716 8.37521 42.0706 9.12021 42.0706 10.0002C42.0706 10.8802 42.3716 11.6262 42.9756 12.2292C43.5786 12.8332 44.3156 13.1342 45.1876 13.1342C46.1006 13.1342 46.8296 12.8412 47.3916 12.2462C47.8856 11.7522 48.1376 11.0812 48.1376 10.2432C48.1376 10.1012 48.1206 9.95021 48.0956 9.79121Z" fill="white"/>
<path d="M49.2437 7.00021V13.0002H52.7467V12.2632H50.0147V10.3612H52.4777V9.64021H50.0147V7.73821H52.7467V7.00021H49.2437Z" fill="white"/>
<path d="M57.6726 7.73821V7.00021H53.5496V7.73821H55.2256V13.0002H55.9966V7.73821H57.6726Z" fill="white"/>
<path d="M61.4276 7.00021H60.6566V13.0002H61.4276V7.00021Z" fill="white"/>
<path d="M66.5226 7.73821V7.00021H62.3996V7.73821H64.0756V13.0002H64.8466V7.73821H66.5226Z" fill="white"/>
<path d="M74.3246 7.78021C73.7296 7.16821 73.0006 6.86621 72.1286 6.86621C71.2576 6.86621 70.5276 7.16821 69.9326 7.77121C69.3376 8.36621 69.0446 9.11221 69.0446 10.0002C69.0446 10.8892 69.3376 11.6342 69.9326 12.2292C70.5276 12.8332 71.2576 13.1342 72.1286 13.1342C72.9916 13.1342 73.7296 12.8332 74.3246 12.2292C74.9196 11.6342 75.2126 10.8892 75.2126 10.0002C75.2126 9.12021 74.9196 8.37521 74.3246 7.78021ZM70.4866 8.28221C70.9306 7.83021 71.4746 7.60421 72.1286 7.60421C72.7826 7.60421 73.3266 7.83021 73.7626 8.28221C74.2066 8.72721 74.4246 9.30521 74.4246 10.0002C74.4246 10.6962 74.2066 11.2742 73.7626 11.7182C73.3266 12.1712 72.7826 12.3972 72.1286 12.3972C71.4746 12.3972 70.9306 12.1712 70.4866 11.7182C70.0506 11.2662 69.8326 10.6962 69.8326 10.0002C69.8326 9.30521 70.0506 8.73521 70.4866 8.28221Z" fill="white"/>
<path d="M77.0646 9.26321L77.0316 8.10621H77.0646L80.1156 13.0002H80.9196V7.00021H80.1486V10.5122L80.1826 11.6682H80.1486L77.2326 7.00021H76.2946V13.0002H77.0646V9.26321Z" fill="white"/>
</g>
<defs>
<clipPath id="clip0_857_1085">
<rect width="135" height="40" fill="white" transform="translate(0.720642)"/>
</clipPath>
</defs>
</svg>
