<svg width="48" height="48" viewBox="0 0 48 48" fill="none" xmlns="http://www.w3.org/2000/svg">
<circle cx="24" cy="24" r="23" fill="white" stroke="#9A9EA6" stroke-width="2"/>
<path fill-rule="evenodd" clip-rule="evenodd" d="M23.5746 13.5065C23.3158 13.5064 23.0759 13.5063 22.853 13.5066V13.5034C20.4674 13.5061 20.0097 13.5221 18.8289 13.5754C17.5809 13.6328 16.9033 13.8408 16.4521 14.0168C15.8548 14.2493 15.4281 14.5266 14.9801 14.9746C14.5321 15.4226 14.2542 15.8493 14.0222 16.4466C13.847 16.8979 13.6385 17.5752 13.5814 18.8232C13.5201 20.1726 13.5078 20.5758 13.5078 23.9939C13.5078 27.4121 13.5201 27.8174 13.5814 29.1668C13.6382 30.4148 13.847 31.0921 14.0222 31.5428C14.2548 32.1404 14.5321 32.566 14.9801 33.014C15.4281 33.462 15.8548 33.7394 16.4521 33.9714C16.9036 34.1466 17.5809 34.3551 18.8289 34.4127C20.1783 34.474 20.5834 34.4874 24.0013 34.4874C27.4189 34.4874 27.8242 34.474 29.1736 34.4127C30.4216 34.3556 31.0995 34.1476 31.5501 33.9716C32.1477 33.7396 32.5731 33.4623 33.0211 33.0143C33.4691 32.5665 33.747 32.1412 33.979 31.5439C34.1542 31.0932 34.3627 30.4159 34.4198 29.1678C34.4811 27.8185 34.4944 27.4132 34.4944 23.9971C34.4944 20.5811 34.4811 20.1758 34.4198 18.8264C34.363 17.5784 34.1542 16.9011 33.979 16.4504C33.7464 15.853 33.4691 15.4264 33.0211 14.9784C32.5733 14.5304 32.1475 14.253 31.5501 14.021C31.0989 13.8458 30.4216 13.6373 29.1736 13.5802C27.824 13.5189 27.4189 13.5066 24.0013 13.5066L23.5746 13.5065ZM29.2978 17.1675C29.2978 16.3192 29.9859 15.632 30.8339 15.632V15.6314C31.6819 15.6314 32.3699 16.3194 32.3699 17.1675C32.3699 18.0155 31.6819 18.7035 30.8339 18.7035C29.9859 18.7035 29.2978 18.0155 29.2978 17.1675ZM24.001 17.4267C20.3709 17.4268 17.4279 20.37 17.4279 24.0001C17.4279 27.6302 20.3711 30.5721 24.0013 30.5721C27.6314 30.5721 30.5736 27.6302 30.5736 24.0001C30.5736 20.3699 27.6312 17.4267 24.001 17.4267ZM28.2678 24.0001C28.2678 21.6435 26.3574 19.7334 24.0011 19.7334C21.6445 19.7334 19.7344 21.6435 19.7344 24.0001C19.7344 26.3564 21.6445 28.2668 24.0011 28.2668C26.3574 28.2668 28.2678 26.3564 28.2678 24.0001Z" fill="#9A9EA6"/>
</svg>
