<svg width="48" height="48" viewBox="0 0 48 48" fill="none" xmlns="http://www.w3.org/2000/svg">
<circle cx="24" cy="24" r="23" fill="white" stroke="#9A9EA6" stroke-width="2"/>
<path fill-rule="evenodd" clip-rule="evenodd" d="M17.3187 14.8227C17.2834 13.2204 16.1376 12 14.277 12C12.4164 12 11.2 13.2204 11.2 14.8227C11.2 16.3918 12.3804 17.6473 14.2064 17.6473H14.2411C16.1376 17.6473 17.3187 16.3918 17.3187 14.8227ZM16.9607 19.8779H11.5217V36.2196H16.9607V19.8779ZM30.3132 19.4941C33.8923 19.4941 36.5755 21.8303 36.5755 26.8497L36.5753 36.2196H31.1366V27.4767C31.1366 25.2807 30.3495 23.7822 28.3806 23.7822C26.878 23.7822 25.983 24.7924 25.5899 25.7681C25.4461 26.1178 25.4108 26.605 25.4108 27.0934V36.22H19.9712C19.9712 36.22 20.0429 21.4117 19.9712 19.8783H25.4108V22.1929C26.1326 21.0802 27.4255 19.4941 30.3132 19.4941Z" fill="#9A9EA6"/>
</svg>
