<svg width="112" height="40" viewBox="0 0 112 40" fill="none" xmlns="http://www.w3.org/2000/svg">
<g clip-path="url(#clip0_857_1095)">
<path d="M1.22064 39.5V0.5H110.991V39.5H1.22064Z" fill="black" stroke="#D2D2D2"/>
<path d="M53.0663 20.8975C53.0663 20.577 53.1817 20.3206 53.4124 20.1026C53.6432 19.8847 53.9124 19.7821 54.233 19.7821C54.5663 19.7821 54.8483 19.8975 55.0663 20.1155C55.2842 20.3334 55.3996 20.6026 55.3996 20.8975C55.3996 21.2052 55.2842 21.4744 55.0535 21.6796C54.8227 21.8975 54.5535 22.0001 54.2201 22.0001C53.8868 22.0001 53.6176 21.8975 53.3868 21.6796C53.1817 21.4616 53.0663 21.2052 53.0663 20.8975ZM55.1817 31.3847H53.2714V23.2437H55.1817V31.3847Z" fill="white"/>
<path d="M61.0022 29.9835C61.2842 29.9835 61.6047 29.9194 61.9509 29.7912C62.297 29.663 62.6047 29.4835 62.8996 29.2656V31.0476C62.5919 31.2271 62.2458 31.3553 61.8611 31.445C61.4765 31.5348 61.0406 31.5861 60.5791 31.5861C59.3868 31.5861 58.4124 31.2015 57.656 30.445C56.8996 29.6886 56.5278 28.7143 56.5278 27.5476C56.5278 26.2399 56.9124 25.163 57.6817 24.3168C58.4509 23.4707 59.5278 23.0476 60.9381 23.0476C61.297 23.0476 61.656 23.0989 62.0278 23.1886C62.3996 23.2784 62.6817 23.3938 62.8996 23.5091V25.3425C62.6047 25.1245 62.297 24.9579 61.9894 24.8425C61.6817 24.7271 61.3611 24.663 61.0406 24.663C60.2842 24.663 59.6817 24.9066 59.2073 25.3938C58.7458 25.8809 58.515 26.5476 58.515 27.3809C58.515 28.2015 58.7329 28.8425 59.1817 29.304C59.6304 29.7656 60.2329 29.9835 61.0022 29.9835Z" fill="white"/>
<path d="M68.3494 23.1152C68.5032 23.1152 68.6443 23.128 68.7596 23.1408C68.875 23.1665 68.9904 23.1921 69.0673 23.2178V25.1537C68.9648 25.0767 68.8237 25.0126 68.6314 24.9485C68.4391 24.8844 68.2084 24.846 67.9263 24.846C67.4519 24.846 67.0545 25.0383 66.734 25.4357C66.4135 25.8332 66.2468 26.4357 66.2468 27.2691V31.3844H64.3366V23.2434H66.2468V24.5255H66.2725C66.4519 24.0767 66.7084 23.7306 67.0673 23.487C67.4263 23.2434 67.8494 23.1152 68.3494 23.1152Z" fill="white"/>
<path d="M69.1689 27.4322C69.1689 26.0861 69.5535 25.022 70.3099 24.2271C71.0663 23.445 72.1304 23.0476 73.4765 23.0476C74.7458 23.0476 75.7458 23.4322 76.4637 24.1886C77.1817 24.945 77.5406 25.9707 77.5406 27.2527C77.5406 28.5732 77.156 29.6245 76.3996 30.4066C75.6432 31.1886 74.6047 31.5732 73.2971 31.5732C72.0406 31.5732 71.0278 31.2015 70.2971 30.4579C69.5406 29.7271 69.1689 28.7143 69.1689 27.4322ZM71.1688 27.3681C71.1688 28.2143 71.3612 28.8681 71.7458 29.3168C72.1304 29.7656 72.6817 29.9835 73.3996 29.9835C74.0919 29.9835 74.6304 29.7656 74.9894 29.3168C75.3483 28.8681 75.5406 28.2015 75.5406 27.3168C75.5406 26.445 75.3483 25.7784 74.9765 25.3297C74.6047 24.8809 74.0663 24.663 73.3868 24.663C72.6817 24.663 72.1432 24.8938 71.7458 25.3681C71.3612 25.8425 71.1688 26.4963 71.1688 27.3681Z" fill="white"/>
<path d="M80.3874 25.3802C80.3874 25.6495 80.4771 25.8674 80.6438 26.0213C80.8233 26.1751 81.2079 26.3674 81.7976 26.611C82.5668 26.9187 83.1053 27.2649 83.413 27.6495C83.7207 28.0341 83.8745 28.4956 83.8745 29.0341C83.8745 29.8033 83.5797 30.4187 82.9899 30.8802C82.4002 31.3418 81.6053 31.5726 80.6053 31.5726C80.272 31.5726 79.9002 31.5341 79.4899 31.4443C79.0797 31.3674 78.7335 31.252 78.4515 31.1367V29.252C78.7976 29.4956 79.1694 29.6879 79.5797 29.829C79.9771 29.97 80.3489 30.0469 80.6694 30.0469C81.1053 30.0469 81.4258 29.9828 81.6309 29.8674C81.8361 29.752 81.9386 29.5469 81.9386 29.252C81.9386 28.9828 81.8361 28.7649 81.6181 28.5854C81.4002 28.4059 81.0027 28.1879 80.4002 27.9572C79.6951 27.6623 79.1951 27.329 78.9002 26.9572C78.6053 26.5854 78.4515 26.111 78.4515 25.5469C78.4515 24.8161 78.7463 24.2136 79.3233 23.7392C79.9002 23.2649 80.6566 23.0341 81.5925 23.0341C81.8745 23.0341 82.195 23.0597 82.554 23.1238C82.913 23.1879 83.2079 23.2649 83.4386 23.3674V25.1879C83.1822 25.0213 82.8874 24.8802 82.554 24.752C82.2207 24.6367 81.8745 24.5726 81.554 24.5726C81.195 24.5726 80.9002 24.6495 80.7079 24.7905C80.4899 24.9315 80.3874 25.1367 80.3874 25.3802Z" fill="white"/>
<path d="M84.7204 27.4322C84.7204 26.0861 85.105 25.022 85.8615 24.2271C86.6179 23.445 87.682 23.0476 89.0281 23.0476C90.2973 23.0476 91.2973 23.4322 92.0153 24.1886C92.7332 24.945 93.0922 25.9707 93.0922 27.2527C93.0922 28.5732 92.7076 29.6245 91.9512 30.4066C91.1948 31.1886 90.1563 31.5732 88.8486 31.5732C87.5922 31.5732 86.5794 31.2015 85.8486 30.4579C85.0922 29.7271 84.7204 28.7143 84.7204 27.4322ZM86.7076 27.3681C86.7076 28.2143 86.8999 28.8681 87.2845 29.3168C87.6691 29.7656 88.2204 29.9835 88.9384 29.9835C89.6307 29.9835 90.1691 29.7656 90.5281 29.3168C90.8871 28.8681 91.0794 28.2015 91.0794 27.3168C91.0794 26.445 90.8871 25.7784 90.5153 25.3297C90.1435 24.8809 89.605 24.663 88.9256 24.663C88.2204 24.663 87.682 24.8938 87.2845 25.3681C86.8999 25.8425 86.7076 26.4963 86.7076 27.3681Z" fill="white"/>
<path d="M99.4122 24.8161V28.9956C99.4122 29.8674 99.6173 30.5084 100.015 30.9443C100.412 31.3802 101.028 31.5853 101.835 31.5853C102.105 31.5853 102.387 31.5597 102.669 31.4956C102.951 31.4315 103.156 31.3802 103.271 31.3033V29.7135C103.156 29.7904 103.015 29.8545 102.861 29.9058C102.707 29.9571 102.566 29.9827 102.463 29.9827C102.079 29.9827 101.784 29.8802 101.605 29.675C101.425 29.4699 101.335 29.1109 101.335 28.6109V24.8032H103.284V23.2391H101.348V20.8289L99.425 21.4186V23.252H96.566V22.2648C96.566 21.7776 96.6686 21.4058 96.8866 21.1494C97.1045 20.893 97.4122 20.7776 97.8096 20.7776C98.0148 20.7776 98.1942 20.8032 98.3609 20.8545C98.5148 20.9058 98.6301 20.9571 98.6943 20.9956V19.3417C98.5532 19.2904 98.3994 19.2648 98.2199 19.2391C98.0404 19.2135 97.8353 19.2007 97.6045 19.2007C96.7327 19.2007 96.0148 19.4699 95.4635 20.0212C94.9122 20.5725 94.6301 21.2648 94.6301 22.1238V23.252H93.2712V24.8161H94.6301V31.393H96.566V24.8161H99.4122Z" fill="white"/>
<path d="M51.4254 20.0255V31.3845H49.4511V22.4871H49.4254L45.8998 31.3845H44.5921L40.9767 22.4871H40.951V31.3845H39.1305V20.0255H41.9511L45.2203 28.4486H45.2716L48.7203 20.0255H51.4254Z" fill="white"/>
<path d="M44.3108 15.116C43.6314 15.5006 42.8621 15.6929 42.0031 15.6929C41.3493 15.6929 40.7724 15.5519 40.2596 15.257C39.7596 14.9749 39.3621 14.5647 39.0929 14.039C38.8237 13.5134 38.6826 12.9236 38.6826 12.2698C38.6826 11.5775 38.8365 10.9493 39.1314 10.4108C39.4262 9.87236 39.8493 9.43647 40.4006 9.12877C40.9519 8.82108 41.5672 8.66724 42.2596 8.66724C42.6057 8.66724 42.9519 8.7057 43.298 8.7698C43.6442 8.8339 43.9262 8.92365 44.1442 9.02621V10.0519C43.6314 9.7057 42.9775 9.53903 42.1826 9.53903C41.7083 9.53903 41.2852 9.65442 40.9006 9.88519C40.516 10.116 40.2211 10.4365 40.016 10.8339C39.8108 11.2442 39.7083 11.7057 39.7083 12.2185C39.7083 13.0262 39.9262 13.6672 40.3493 14.1416C40.7724 14.616 41.3621 14.8467 42.1057 14.8467C42.5801 14.8467 43.0031 14.757 43.3621 14.5647V12.8083H41.9134V11.9621H44.3108V15.116Z" fill="white"/>
<path d="M49.8366 13.4092H46.4777C46.4905 13.8964 46.6443 14.2682 46.9007 14.5374C47.17 14.7938 47.5161 14.9349 47.952 14.9349C48.529 14.9349 49.029 14.7682 49.4649 14.4349V15.2554C49.2725 15.3836 49.029 15.499 48.7341 15.5759C48.4392 15.6528 48.1315 15.6913 47.8238 15.6913C47.0931 15.6913 46.5161 15.4733 46.1187 15.0374C45.7213 14.6015 45.5161 13.9861 45.5161 13.1913C45.5161 12.7041 45.6187 12.2554 45.811 11.8708C46.0033 11.4733 46.2854 11.1656 46.6315 10.9477C46.9777 10.7297 47.3751 10.6143 47.7982 10.6143C48.4264 10.6143 48.9264 10.8195 49.2854 11.2297C49.6443 11.64 49.8238 12.2041 49.8238 12.9349V13.4092H49.8366ZM48.9007 12.6785C48.9007 12.2554 48.7982 11.9349 48.6059 11.7169C48.4136 11.499 48.1443 11.3836 47.7854 11.3836C47.4648 11.3836 47.1828 11.499 46.9392 11.7297C46.6956 11.9605 46.5546 12.281 46.4777 12.6785H48.9007Z" fill="white"/>
<path d="M53.4773 15.5261C53.3876 15.5773 53.2722 15.6158 53.1055 15.6414C52.9517 15.6671 52.8106 15.6799 52.6824 15.6799C51.785 15.6799 51.3363 15.1799 51.3363 14.1927V11.5004H50.5158V10.7312H51.3363V9.57734L52.2722 9.28247V10.7184H53.4645V11.4876H52.2722V14.0261C52.2722 14.3466 52.3235 14.5773 52.426 14.7055C52.5286 14.8338 52.7081 14.8979 52.9773 14.8979C53.1568 14.8979 53.3235 14.8466 53.4645 14.744V15.5261H53.4773Z" fill="white"/>
<path d="M58.118 9.0136C58.118 9.16745 58.0667 9.29565 57.9514 9.41104C57.836 9.52642 57.695 9.5777 57.5283 9.5777C57.3616 9.5777 57.2206 9.52642 57.1052 9.41104C56.9898 9.30847 56.9385 9.16745 56.9385 9.00078C56.9385 8.83412 57.0026 8.69309 57.118 8.59053C57.2334 8.48796 57.3744 8.42386 57.5283 8.42386C57.6821 8.42386 57.8232 8.47514 57.9385 8.59053C58.0667 8.71873 58.118 8.84694 58.118 9.0136ZM57.9898 15.5777H57.0539V10.7316H57.9898V15.5777Z" fill="white"/>
<path d="M62.0534 15.5261C61.9637 15.5773 61.8483 15.6158 61.6816 15.6414C61.5278 15.6671 61.3867 15.6799 61.2585 15.6799C60.3611 15.6799 59.9124 15.1799 59.9124 14.1927V11.5004H59.0919V10.7312H59.9124V9.57734L60.8483 9.28247V10.7184H62.0406V11.4876H60.8483V14.0261C60.8483 14.3466 60.8996 14.5773 61.0021 14.7055C61.1047 14.8338 61.2842 14.8979 61.5534 14.8979C61.7329 14.8979 61.8996 14.8466 62.0406 14.744V15.5261H62.0534Z" fill="white"/>
<path d="M68.1822 9.19285C68.0284 9.11592 67.8617 9.06464 67.6694 9.06464C67.1438 9.06464 66.8874 9.38515 66.8874 10.0262V10.7185H67.9899V11.4877H66.8874V15.5646H65.9515V11.5005H65.131V10.7313H65.9515V9.98772C65.9515 9.4749 66.0925 9.06464 66.3874 8.75695C66.6822 8.44926 67.0797 8.29541 67.5925 8.29541C67.8489 8.29541 68.0412 8.32105 68.1951 8.38515V9.19285H68.1822Z" fill="white"/>
<path d="M71.631 11.6671C71.5797 11.6286 71.4772 11.5901 71.349 11.5517C71.2208 11.526 71.1054 11.5004 71.0156 11.5004C70.6823 11.5004 70.4131 11.6542 70.2079 11.9491C70.0028 12.244 69.9002 12.6286 69.9002 13.103V15.5773H68.9643V10.7312H69.9002V11.7055H69.9259C70.0284 11.3722 70.1951 11.1158 70.4131 10.9235C70.631 10.7312 70.8874 10.6414 71.1695 10.6414C71.3618 10.6414 71.5156 10.6671 71.6182 10.7055V11.6671H71.631Z" fill="white"/>
<path d="M76.9775 13.1272C76.9775 13.9092 76.7468 14.5374 76.298 14.999C75.8493 15.4605 75.2468 15.6913 74.5032 15.6913C73.7724 15.6913 73.1827 15.4605 72.7468 15.0118C72.3109 14.5631 72.0929 13.9605 72.0929 13.2041C72.0929 12.3964 72.3237 11.7682 72.7724 11.3067C73.2211 10.8451 73.8365 10.6143 74.6186 10.6143C75.3493 10.6143 75.9262 10.8323 76.3365 11.281C76.7724 11.7297 76.9775 12.3451 76.9775 13.1272ZM76.016 13.1528C76.016 12.5759 75.8878 12.14 75.6442 11.8451C75.3878 11.5502 75.0416 11.3964 74.5801 11.3964C74.1185 11.3964 73.7468 11.5502 73.4775 11.8708C73.2083 12.1785 73.0801 12.6272 73.0801 13.1913C73.0801 13.7426 73.2083 14.1656 73.4775 14.4733C73.7468 14.781 74.1057 14.9349 74.5801 14.9349C75.0544 14.9349 75.4134 14.781 75.657 14.4861C75.8878 14.1656 76.016 13.7297 76.016 13.1528Z" fill="white"/>
<path d="M85.3482 15.5752H84.4123V12.8188C84.4123 12.3188 84.3354 11.9598 84.1816 11.729C84.0277 11.4983 83.7585 11.3957 83.3867 11.3957C83.079 11.3957 82.8098 11.5367 82.6046 11.8188C82.3867 12.1008 82.2841 12.447 82.2841 12.8316V15.5752H81.3482V12.729C81.3482 11.8444 81.0021 11.3957 80.3226 11.3957C80.0021 11.3957 79.7328 11.5367 79.5277 11.806C79.3226 12.0752 79.22 12.4213 79.22 12.8444V15.588H78.2841V10.729H79.22V11.4854H79.2328C79.579 10.8957 80.0918 10.6137 80.7457 10.6137C81.0534 10.6137 81.3354 10.7034 81.5918 10.8701C81.8354 11.0367 82.0149 11.2803 82.1303 11.588C82.3226 11.2547 82.5405 11.0111 82.8098 10.8444C83.079 10.6906 83.3867 10.6008 83.7457 10.6008C84.8098 10.6008 85.3354 11.2547 85.3354 12.5752V15.5752H85.3482Z" fill="white"/>
<path d="M20.5042 8.70557H9.76064V19.4492H20.5042V8.70557Z" fill="#F25022"/>
<path d="M32.3627 8.70557H21.6191V19.4492H32.3627V8.70557Z" fill="#7FBA00"/>
<path d="M20.5042 20.5503H9.76064V31.2939H20.5042V20.5503Z" fill="#00A4EF"/>
<path d="M32.3627 20.5503H21.6191V31.2939H32.3627V20.5503Z" fill="#FFB900"/>
</g>
<defs>
<clipPath id="clip0_857_1095">
<rect width="110.769" height="40" fill="white" transform="translate(0.720642)"/>
</clipPath>
</defs>
</svg>
