<svg width="48" height="48" viewBox="0 0 48 48" fill="none" xmlns="http://www.w3.org/2000/svg">
<circle cx="24" cy="24" r="23" fill="white" stroke="#9A9EA6" stroke-width="2"/>
<path d="M12.0821 23.9992C12.0821 28.9895 15.2364 33.253 19.6878 34.9698C19.5831 34.0383 19.4898 32.6083 19.7302 31.5891C19.9466 30.6701 21.1334 25.7341 21.1334 25.7341C21.1334 25.7341 20.7755 25.0282 20.7755 23.9853C20.7755 22.3465 21.7388 21.124 22.9411 21.124C23.961 21.124 24.4546 21.8786 24.4546 22.7837C24.4546 23.7945 23.8011 25.3053 23.4631 26.706C23.1816 27.8798 24.0614 28.835 25.2354 28.835C27.3628 28.835 28.9979 26.6267 28.9979 23.4395C28.9979 20.6185 26.9399 18.6469 23.9991 18.6469C20.5945 18.6469 18.5958 21.1615 18.5958 23.7597C18.5958 24.772 18.9905 25.8581 19.4855 26.4484C19.5831 26.5654 19.5973 26.667 19.569 26.7868C19.4784 27.1586 19.2762 27.9592 19.2366 28.1221C19.1842 28.3379 19.0626 28.3838 18.8349 28.2808C17.3412 27.5958 16.4076 25.4431 16.4076 23.7166C16.4076 20.0003 19.1503 16.5862 24.3146 16.5862C28.4661 16.5862 31.6925 19.499 31.6925 23.3908C31.6925 27.451 29.0913 30.7189 25.4829 30.7189C24.2693 30.7189 23.1292 30.0979 22.7388 29.3655C22.7388 29.3655 22.1391 31.6142 21.9934 32.1656C21.7232 33.189 20.9934 34.4714 20.5068 35.2539C21.6256 35.5964 22.8152 35.7802 24.0501 35.7802C30.66 35.7802 36.018 30.5058 36.018 23.9992C36.018 17.4912 30.66 12.2183 24.0501 12.2183C17.4402 12.2183 12.0821 17.4912 12.0821 23.9992Z" fill="#9A9EA6"/>
</svg>
